# xmcd
#
# Track frame offsets:
#	150
#	19825
#	29410
#	44345
#	58930
#	69165
#	79352
#	91742
#	110802
#	131282
#	149360
#	158870
#	172102
#	186835
#	197390
#	208867
#	227975
#	241527
#	256490
#	271080
#
# Disc length: 3745 seconds
#
# Revision: 1
# Processed by: cddbd v1.5.1PL0 Copyright (c) Steve Scherf et al.
# Submitted via: audiograbber 1.83.01
#
DISCID=1a0e9f14
DTITLE=Country - The Country Collection Disk #6
DYEAR=1900
DGENRE=Country
TTITLE0=Marty Robbins - El Paso
TTITLE1=Ned Miller - From A Jack To A King
TTITLE2=Sweethearts Of The Rodeo - Chains Of Gold
TTITLE3=Connie Smith - Did We Have To Come This Far
TTITLE4=Grand Junction - On The Road Again
TTITLE5=Patsy Cline - Pick Me Up On Your Way Down
TTITLE6=Bobby Helms - Fraulein
TTITLE7=Col Joy - Coward Of The County
TTITLE8=Razzy Bailey - Still Going Strong
TTITLE9=Ricky Nelson - Garden Party
TTITLE10=Charlie Pride - Charlie Pride
TTITLE11=Roy Acuff - Tennessee Waltz
TTITLE12=Willie Nelson - Face Of A Fighter
TTITLE13=Buck Owens - After The Dance
TTITLE14=Patsy Cline - The Heart You Break May Be Your Own
TTITLE15=Dave Travis - Sweet Country Music
TTITLE16=Col Joye - Tie A Yellow Ribbon
TTITLE17=Jeannie C Reilly - Harper Valley PTA
TTITLE18=Lorrie Morgan - Please Mister Please
TTITLE19=Willie Nelson - Half A Man
EXTD=
EXTT0=
EXTT1=
EXTT2=
EXTT3=
EXTT4=
EXTT5=
EXTT6=
EXTT7=
EXTT8=
EXTT9=
EXTT10=
EXTT11=
EXTT12=
EXTT13=
EXTT14=
EXTT15=
EXTT16=
EXTT17=
EXTT18=
EXTT19=
PLAYORDER=
